<?xml version="1.0" encoding="utf-8"?>
<svg viewBox="0 0 124 300" xmlns="http://www.w3.org/2000/svg" xmlns:xlink="http://www.w3.org/1999/xlink">
  <defs>
    <linearGradient id="ag">
      <stop stop-color="#5bd108" offset="0"/>
      <stop stop-color="#548c00" offset="1"/>
    </linearGradient>
    <linearGradient id="af">
      <stop stop-color="#8f8383" offset="0"/>
      <stop stop-color="#a28f8f" offset="0.5"/>
      <stop stop-color="#9f9b9b" offset="1"/>
    </linearGradient>
    <radialGradient id="au" cx="360.4" cy="792.39" r="27.212" gradientTransform="matrix(1.6004 .096822 -.061683 1.0196 -167.43 -55.55)" gradientUnits="userSpaceOnUse">
      <stop stop-color="#e3e3e3" offset="0"/>
      <stop stop-color="#e1e1e1" offset="0.5104"/>
      <stop stop-color="#999898" offset="0.5694"/>
      <stop stop-color="#858585" offset="1"/>
    </radialGradient>
    <linearGradient id="bh" x1="360.39" x2="341.93" y1="736.5" y2="736.14" gradientTransform="translate(0,1.25)" gradientUnits="userSpaceOnUse" spreadMethod="reflect">
      <stop stop-color="#363636" offset="0"/>
      <stop stop-color="#726262" offset="0.5"/>
      <stop stop-color="#9c9999" offset="1"/>
    </linearGradient>
    <radialGradient id="av" cx="326.37" cy="711.87" r="18.419" gradientTransform="matrix(-1.497 1.7696 -4.0837 -3.4547 3723.8 2588.4)" gradientUnits="userSpaceOnUse">
      <stop stop-color="#b5b5b5" offset="0"/>
      <stop stop-color="#787878" offset="0.3163"/>
      <stop stop-color="#696969" offset="0.3813"/>
      <stop stop-color="#936c6c" offset="1"/>
    </radialGradient>
    <radialGradient id="aw" cx="386.63" cy="712.97" r="15.488" gradientTransform="matrix(1.2593 .13331 -.31397 2.9657 122.33 -1454.1)" gradientUnits="userSpaceOnUse">
      <stop stop-color="#b5b5b5" offset="0"/>
      <stop stop-color="#787878" offset="0.5079"/>
      <stop stop-color="#696969" offset="0.7759"/>
      <stop stop-color="#936c6c" offset="1"/>
    </radialGradient>
    <radialGradient id="ax" cx="381.79" cy="771.11" r="15.073" gradientTransform="matrix(1 0 0 .82098 0 138.04)" gradientUnits="userSpaceOnUse" xlink:href="#af"/>
    <radialGradient id="ay" cx="337.93" cy="773.17" r="15.073" gradientTransform="matrix(1 0 0 .82098 0 138.41)" gradientUnits="userSpaceOnUse" xlink:href="#af"/>
    <radialGradient id="az" cx="379.62" cy="755.91" r="6.6806" gradientTransform="matrix(1 0 0 .76021 0 181.26)" gradientUnits="userSpaceOnUse" xlink:href="#ag"/>
    <radialGradient id="ba" cx="339.05" cy="757.81" r="7.0571" gradientTransform="matrix(1 0 0 .6665 0 252.73)" gradientUnits="userSpaceOnUse" xlink:href="#ag"/>
    <linearGradient id="bi" x1="327.21" x2="313.14" y1="754.04" y2="767.67" gradientUnits="userSpaceOnUse">
      <stop stop-color="#353535" offset="0"/>
      <stop stop-color="#b1b1b1" offset="1"/>
    </linearGradient>
    <linearGradient id="bj" x1="327.21" x2="309.1" y1="754.04" y2="763.89" gradientTransform="matrix(-1 0 0 1 723.1 -3.7101)" gradientUnits="userSpaceOnUse">
      <stop stop-color="#353535" offset="0"/>
      <stop stop-color="#b1b1b1" offset="1"/>
    </linearGradient>
    <linearGradient id="ah" x1="334.5" x2="305.5" y1="785.93" y2="802.01" gradientUnits="userSpaceOnUse">
      <stop stop-color="#d0d0d0" offset="0"/>
      <stop stop-color="#dbdbdb" stop-opacity=".78431" offset="0.5"/>
      <stop stop-color="#e6e6e6" stop-opacity=".57075" offset="1"/>
    </linearGradient>
    <linearGradient id="ai" x1="334.5" x2="305.5" y1="785.93" y2="802.01" gradientTransform="matrix(.99586 -.090856 .090856 .99586 -64.786 34.624)" gradientUnits="userSpaceOnUse">
      <stop stop-color="#d0d0d0" offset="0"/>
      <stop stop-color="#dbdbdb" stop-opacity=".78431" offset="0.5"/>
      <stop stop-color="#e6e6e6" stop-opacity=".57075" offset="1"/>
    </linearGradient>
    <linearGradient id="aj" x1="334.5" x2="305.5" y1="785.93" y2="802.01" gradientTransform="matrix(.98094 -.1943 .1943 .98094 -138.85 85.402)" gradientUnits="userSpaceOnUse">
      <stop stop-color="#d0d0d0" offset="0"/>
      <stop stop-color="#dbdbdb" stop-opacity=".78431" offset="0.5"/>
      <stop stop-color="#e6e6e6" stop-opacity=".57075" offset="1"/>
    </linearGradient>
    <linearGradient id="am" x1="334.5" x2="313.42" y1="785.93" y2="796.23" gradientTransform="matrix(.72661 -.68705 .68705 .72661 -444.09 456.42)" gradientUnits="userSpaceOnUse">
      <stop stop-color="#d0d0d0" offset="0"/>
      <stop stop-color="#dbdbdb" stop-opacity=".78431" offset="0.5"/>
      <stop stop-color="#e6e6e6" stop-opacity=".57075" offset="1"/>
    </linearGradient>
    <linearGradient id="an" x1="334.5" x2="313.42" y1="785.93" y2="796.23" gradientTransform="matrix(-.61599 -.55856 -.58245 .59072 1045.9 520.79)" gradientUnits="userSpaceOnUse">
      <stop stop-color="#d0d0d0" offset="0"/>
      <stop stop-color="#dbdbdb" stop-opacity=".78431" offset="0.5"/>
      <stop stop-color="#e6e6e6" stop-opacity=".57075" offset="1"/>
    </linearGradient>
    <linearGradient id="ak" x1="334.5" x2="305.5" y1="785.93" y2="802.01" gradientTransform="matrix(-.8316 -.15796 -.16472 .79749 787.18 219.16)" gradientUnits="userSpaceOnUse">
      <stop stop-color="#d0d0d0" offset="0"/>
      <stop stop-color="#dbdbdb" stop-opacity=".78431" offset="0.5"/>
      <stop stop-color="#e6e6e6" stop-opacity=".57075" offset="1"/>
    </linearGradient>
    <linearGradient id="al" x1="334.5" x2="305.5" y1="785.93" y2="802.01" gradientTransform="matrix(-.84425 -.073865 -.077024 .80962 724.39 177.88)" gradientUnits="userSpaceOnUse">
      <stop stop-color="#d0d0d0" offset="0"/>
      <stop stop-color="#dbdbdb" stop-opacity=".78431" offset="0.5"/>
      <stop stop-color="#e6e6e6" stop-opacity=".57075" offset="1"/>
    </linearGradient>
    <linearGradient id="ao" x1="334.5" x2="305.5" y1="785.93" y2="802.01" gradientTransform="matrix(-.84776 0 0 .81298 669.47 149.73)" gradientUnits="userSpaceOnUse">
      <stop stop-color="#d0d0d0" offset="0"/>
      <stop stop-color="#dbdbdb" stop-opacity=".78431" offset="0.5"/>
      <stop stop-color="#e6e6e6" stop-opacity=".57075" offset="1"/>
    </linearGradient>
    <linearGradient id="ap" x1="359.83" x2="419.07" y1="677.27" y2="677.27" gradientUnits="userSpaceOnUse" spreadMethod="reflect">
      <stop offset="0"/>
      <stop stop-color="#3e3e3e" offset="0.0527"/>
      <stop stop-color="#6b6b6b" offset="0.3947"/>
      <stop stop-color="#515151" offset="0.6568"/>
      <stop stop-color="#6d6d6d" offset="1"/>
    </linearGradient>
    <radialGradient id="bd" cx="329.34" cy="851.16" r="22.074" gradientTransform="matrix(-1.3952 -.033563 .011883 -.49395 779.73 1273.2)" gradientUnits="userSpaceOnUse">
      <stop stop-color="#fff" offset="0"/>
      <stop stop-color="#d4d4d4" offset="0.6958"/>
      <stop stop-color="#aaa" offset="1"/>
    </radialGradient>
    <radialGradient id="be" cx="329.34" cy="851.16" r="22.074" gradientTransform="matrix(1.2168 -.033563 -.010363 -.49395 -.75198 1274.2)" gradientUnits="userSpaceOnUse">
      <stop stop-color="#fff" offset="0"/>
      <stop stop-color="#d4d4d4" offset="0.6958"/>
      <stop stop-color="#aaa" offset="1"/>
    </radialGradient>
  </defs>
  <g transform="matrix(1, 0, 0, 1, -293.832672, 56.438843)">
    <g transform="matrix(-1, 0, 0, -1, 712.835693, 932.43988)">
      <g stroke="#000" stroke-width="1px">
        <path d="M 375.56 805.87 C 375.467 811.307 377.032 805.632 378.285 811.068 L 377.66 833.134 C 371.431 835.737 369.341 843.204 371.108 846.142 C 383.861 857.376 405.27 853.311 409.278 848.076 C 411.664 844.847 407.516 834.353 401.472 833.095 C 402.134 825.039 401.973 818.356 403.54 808.791 C 401.925 798.495 401.788 798.689 401.432 788.079 C 405.29 771.914 411.448 779.909 412.861 738.079 L 304.621 738.078 C 305.792 771.897 312.235 771.442 316.05 788.078 L 315.773 807.149 L 317.021 831.2 C 306.722 839.45 308.583 842.997 309.214 845.424 C 320.859 855.695 340.495 856.109 351.425 844.248 C 352.626 842.512 353.155 833.949 346.389 832.629 C 346.198 825.773 345.648 818.959 346.121 811.412 C 346.972 806.026 347.762 810.62 347.984 804.86 L 361.772 805.531 L 375.56 805.87 Z" fill="url(#ap)"/>
      </g>
      <path d="m314.03 840.36s3.0185 0.33966 4.7982 1.2627c1.666 0.86402 4.7982 5.177 4.7982 5.177s3.2624-2.6634 5.6821-2.6516c2.8584 0.0139 7.3236 2.6517 7.3236 2.6517s2.584-3.5729 5.177-5.0508c1.5428-0.87927 6.3134-1.0102 6.3134-1.0102 0.41435-3.0436 1.747-4.2505 2.7779-6.0609 1.5691 3.0225 1.1041 5.8554 1.0102 8.2075-5.5609 4.8497-11.854 8.8339-21.087 9.3439-9.5289 0.52632-17.993-4.2103-22.223-8.46 0.16693-5.8545 1.7281-5.3303 2.5254-7.3236 2.7995 0.39376 2.1938 3.2221 2.9042 3.9143z" fill="url(#bd)"/>
      <path d="m405.93 842.67s-4.4821 0.36475-5.4796 1.2627c-1.6272 1.4648-4.0878 3.6618-4.0878 3.6618s-3.6029-2.2846-5.7131-2.2728c-2.4928 0.0139-5.6295 2.2728-5.6295 2.2728s-2.5649-4.7094-4.6061-5.4296c-1.4802-0.52226-5.0656-0.12627-5.0656-0.12627-0.76953-1.6282-2.0193-3.9397-2.4902-4.672-2.6311 2.77-2.0993 5.4766-2.0174 7.8287 4.8498 4.8497 11.853 7.1924 19.906 7.7024 8.3104 0.52632 15.187-1.4324 18.876-5.6821-0.14558-5.8545-1.6334-5.8354-2.3287-7.8287-2.4415 0.39376-0.74451 2.5908-1.3641 3.283z" fill="url(#be)"/>
    </g>
    <g transform="matrix(-0.997001, 0, 0, -0.997001, 711.950989, 930.373962)">
      <path d="m338.57 711.65c4.51-1.9985 9.0086-4.6419 13.929-5 5.343-0.38888 11.125 1.0314 16.429 1.7857 3.8046 0.54111 11.022 3.6861 14.286 5.7143 11.38 7.0708 15.777 11.117 20.714 23.571 3.2471 8.1901 5.9556 20.355 3.9286 28.929-1.7273 7.3061-7.1927 12.927-12.143 18.571-3.1574 3.6002-5.7034 7.5286-10 9.6428-4.2566 2.0945-11.623 4.2648-14.286 6.0714-5.5475 3.7633-11.214 2.2676-16.786 0.35715 0 0-8.0904-2.5597-12.143-4.2857-4.3107-1.836-8.5028-3.9842-12.5-6.4286-4.8761-2.9818-9.9246-3.7716-11.429-9.2857-1.8717-6.8627-6.7401-11.477-8.2143-16.786-1.4777-5.3212-2.2993-8.4299-1.7857-13.929 0.60569-6.4847 2.0426-12.835 5.7143-18.214 5.9121-8.6617 14.698-16.466 24.286-20.714z" fill="#ada8a8"/>
      <path d="m323.39 764.33c4.8347 7.1781 8.1441 14.865 16.964 20.714l12.15-4.46c-2.4033-4.5014-6.6212-7.1883-10.357-10.357-10.024-2.705-11.377-5.8953-15.536-8.9286-3.119 0.42687-3.3857 1.6687-3.2143 3.0357z" fill="url(#ay)"/>
      <path d="m396.32 762.27c-4.8347 7.1781-8.1441 14.865-16.964 20.714l-12.143-4.4643c2.4033-4.5014 6.6212-7.1883 10.357-10.357 10.024-2.705 11.377-5.8953 15.536-8.9286 3.119 0.42687 3.3857 1.6687 3.2143 3.0357z" fill="url(#ax)"/>
      <path d="m353.75 778.97c-2.7666-0.10232-4.8489 0.82184-5.7143 3.5714-3.2502-0.47517-6.3102-1.9014-10-0.17857-7.4493 6.5704-3.5765 9.5274-0.0867 12.451 3.2394 4.4053 8.6535 4.9578 13.122 5.0486 1.6179 1.4816 1.0564 1.9495 3.75 3.3929 2.7372 0.47708 7.1829 2.1028 12.143 0.35714 2.0469-0.43772 4.3814-0.39613 5-3.2143 7.4856-0.22788 6.6176-1.5249 9.5382-3.1889 9.5617-10.121 4.7684-13.37 2.1682-16.201-2.2791-0.88496-6.6412 0.0624-8.4922 0.46174-0.13694-4.1056-3.1655-3.1509-5-4.2857l-8.5714 10c-5.847-5.7807-6.1926-8.3344-7.8571-8.2143z" fill="url(#au)"/>
      <path d="m353.93 778.26c2.2024 2.0574 4.2262 4.0944 6.4286 7.5l-1e-5 4.1072c-3.5119 2.3188-5.7738 1.2548-9.2857 1.194 2.1482 0.89286 3.1279 1.9643 7.1429 2.8572 2.381 1.1041 3.5119 0.93805 5.8928-1e-5 2.619 0.0217 5.2381-0.91866 7.8572-2.3214-2.313 0.68001-5.7054 0.14218-8.9286-1.9083l0.35715-4.2857c1.0425-2.0679 2.8342-5.1375 6.25-7.6786-7.1195-2.0577-12.21-1.2308-15.714 0.53571z" stroke="#000" stroke-width="1px"/>
      <path d="m349.57 763.96c0.0311 5.1059-1.694 10.156 4.0227 14.782l14.739 0.89286c5.3809-2.7642 4.3962-10.611 2.6427-15.17-0.83285-2.1285-1.2705-4.5731 0.25254-8.5863 1.2176-1.3528 3.045-1.4861 3.0305-5.3033 0.47719-2.0761 0.2525-6.4488-0.60968-11.204-2.1225-1.6817-3.2756-4.7177-3.862-1.7857-5.9807 2.2524-11.819 8.0982-16.489 3.1403-1.7167-2.1364-5.0406-5.1907-7.6501-1.8597l-0.93618 8.6782c1.2209 2.2589-1.1688 4.577 3.7881 8.0812z" fill="#ae8e8e"/>
      <path d="m344.11 727.9c0.11831 4.8811 2.36 8.3107 8.5714 11.786-1.8158 9.0329-0.37641 16.438 0.53572 24.107 2.6573-0.33168 4.9589 0.75976 7.1428 2.3214 2.5-2.7999 5-2.4425 7.5-2.5 0.0689-7.811 1.4421-13.339-0.17857-24.107 2.9627-2.5084 4.6631-6.3458 5.6013-10.162 0.29325-4.4556 1.1363-8.1728 1.0058-10.552 1.9972-0.60078 18.866 6.6533 26.821 21.033 3.3565 4.3129 3.77 3.8279 3.7542 1.521-1.6105-6.9941-9.6776-24.358-30.218-31.304-6.1905-2.9835-20.417-4.4637-25.714-3.2143-2.4963 0.58876-7.4314 3.1526-9.9344 4.7774-4.4466 2.8864-26.95 16.082-28.867 31.363 2.5916-2.8919 4.9217-2.9558 5.8-3.5923 3.4031-5.6753 15.706-17.851 27.822-17.369z" fill="url(#bh)"/>
      <path d="m354.39 778.2c-1.0056 0.0275-1.6604 1.2184 0 2.8434 1.7418 0.19154 3.8326-9e-3 4.2272 1.6958l0.0366 2.4813c2.2006 2.4583 4.1153 1.7707 5.3984-0.0999l0.30194-2.0987c0.49133-1.3888 2.0177-1.615 3.9253-1.4131 1.4391-1.1305 2.2778-1.6615 0.30195-3.3915-5.1605-0.67949-12.818-0.54981-14.191-0.0171z" fill="#ffaeae"/>
      <path d="m315.36 739.86c-3.0944-5.9742-4.5118-15.861-6.25-25-1.1905-6.2589-0.73059-7.0919 0.074-16.261 1.1368-6.4169 4.637-8.1069 10.536-5 10.524 9.2378 17.058 16.153 24.39 28.582 0 0-7.3236-1.842-8.0357-1.7857-3.3999 0.26856-14.567 6.6081-16.964 11.607-1.2548 2.6167-3.75 7.8571-3.75 7.8571z" fill="url(#av)"/>
      <path d="m309.54 700.36s1.686-7.6101 3.5281-7.8646c3.0354-0.4193 6.1298 1.4529 8.4235 3.4848 9.7842 8.6673 21.853 27.993 22.543 26.957 1.3998-2.9115 3.2365-5.5608 1.3979-10.415 0 0-8.9561-7.4377-14.36-14.449-3.1875-4.1361-4.1375-4.7372-8.546-7.5359-1.9547-1.2409-6.8172-1.1211-9.1325-1.1327-2.5503-0.0128-5.2396 9.5713-3.8546 10.956z" fill="#929292"/>
      <path d="m373.57 718.08c4.438-11.883 12.946-18.177 18.676-24.296 6.6619-5.3018 10.667-0.71113 10.714 1.6072 0.27371 17.147 1.4766 28.318-1.8903 45.011 0 0-4.0691-13.733-9.6447-18.023-5.0646-3.8967-17.855-4.2984-17.855-4.2984z" fill="url(#aw)"/>
      <path d="m403.21 695.22s-2.2159-6.78-6.3494-6.3187c-3.6042 0.40224-8.7361 3.7236-11.515 6.0535-8.2363 6.9048-13.89 14.842-13.89 14.842-1.5802 3.5391-0.28931 6.1212 2.1537 8.3192 0 0 7.1086-10.766 12.092-16.905 2.9548-3.6393 4.711-5.7088 8.6544-8.7463 1.489-1.1469 4.1989-1.15 6.0191-0.68179 1.3507 0.34745 2.8355 3.4362 2.8355 3.4362z" fill="#929292"/>
      <path d="m343.45 754.37c-4.0406-0.8418-8.0812-0.92598-12.122-1.7678-1.1917 7.7134 2.9913 8.7582 6.566 10.102 2.2364 0.84044 5.2564 0.68486 8.1657 0.30169 0.34252-0.0451 3.0483 7.49 8.7913 14.115 0.13488-0.65462-6.1742-15.528-5.8274-15.636l-1.2806-3.0738c-1.2016-2.1446-2.7524-3.4486-4.2931-4.0406z"/>
      <path d="m373.57 762.23c-1.6071-2.9738-1.7857-4.6432-1.0714-6.3441 3.5696-2.1887 6.9054-4.3773 14.395-6.566 0.68307 3.38 1.0614 6.3537-0.25254 7.0711-1.3257 2.1729-1.395 4.6599-7.8287 5.5558-0.52612 0.0322-1.0729-0.0589-1.5784 0.0889-0.94668 0.27674-8.1921 14.914-8.7212 14.674 2.1189-6.4855 3.7374-9.3794 5.0576-14.479z"/>
      <path d="m332.14 753.26 0.89285 5.3571c3.083 3.0725 7.0547 3.4787 11.071 3.75 2.7056-1.1803 1.9291-3.6665 0.89286-6.25l-3.3929-1.25z" fill="url(#ba)"/>
      <path d="m373.04 756.83c0.56259 1.8779 0.16463 4.7163 3.3929 3.9286 2.7809 0.0893 5.9596 1.0185 8.9286-3.5714 1.3568-3.202 0.64429-4.3348 0.71429-6.25-2.7096 0.79303-7.8678 1.049-13.036 5.8928z" fill="url(#az)"/>
      <path transform="matrix(1.4 0 0 1.5 -151.32 -375.9)" d="m381.25 755.93c0 0.8876-0.79949 1.6072-1.7857 1.6072-0.98622 0-1.7857-0.71955-1.7857-1.6072 0-0.8876 0.79949-1.6071 1.7857-1.6071 0.98623 0 1.7857 0.71954 1.7857 1.6071z" color="#000000"/>
      <path transform="matrix(1.4 0 0 1.5 -191.96 -374.92)" d="m381.25 755.93c0 0.8876-0.79949 1.6072-1.7857 1.6072-0.98622 0-1.7857-0.71955-1.7857-1.6072 0-0.8876 0.79949-1.6071 1.7857-1.6071 0.98623 0 1.7857 0.71954 1.7857 1.6071z" color="#000000"/>
      <path d="m329.81 752.6c-8.388-1.7688-22.648 12.071-18.183 13.385l2.7779 5.3033c0.79737-7.4977 3.4052-15.144 15.405-18.688z" fill="url(#bi)"/>
      <path d="m387.22 749.39c8.388-1.7688 22.9 14.344 17.93 14.395l-1.0102 1.5152c-0.79737-7.4977-4.9204-12.366-16.92-15.91z" fill="url(#bj)"/>
      <path d="m339.64 783.79c-1.4286 0-9.9887 3.021-20.357 8.9286-4.45 2.54-24.28 16.07-24.28 16.07" fill="none" stroke="url(#ah)" stroke-linecap="round" stroke-width="1.2"/>
      <path d="m344.66 784.31c-1.4227 0.1298-9.6729 3.9161-19.462 10.741-4.2037 2.931-22.725 18.211-22.725 18.211" fill="none" stroke="url(#ai)" stroke-linecap="round" stroke-width="1.2"/>
      <path d="m346.61 788.26c-1.4014 0.27757-9.2114 4.9042-18.234 12.714-3.8748 3.3537-17.129 26.198-17.129 26.198" fill="none" stroke="url(#aj)" stroke-linecap="round" stroke-width="1.2"/>
      <path d="m341.2 792.59c-1.038 0.9815-5.1824 9.0578-8.6574 20.474-1.4923 4.9025-4.4617 22.292-4.4617 22.292" fill="none" stroke="url(#am)" stroke-linecap="round" stroke-width="1.2"/>
      <path d="m381.53 786.94c1.2111 0 8.468 2.456 17.258 7.2588 3.7747 2.0625 20.588 13.066 20.588 13.066" fill="none" stroke="url(#ao)" stroke-linecap="round" stroke-width="1.2"/>
      <path d="m377.27 787.36c1.2061 0.10553 8.2003 3.1837 16.499 8.7324 3.5637 2.3828 19.265 14.806 19.265 14.806" fill="none" stroke="url(#al)" stroke-linecap="round" stroke-width="1.2"/>
      <path d="m375.62 790.57c1.188 0.22566 7.809 3.987 15.458 10.336 3.2849 2.7265 14.521 21.299 14.521 21.299" fill="none" stroke="url(#ak)" stroke-linecap="round" stroke-width="1.2"/>
      <path d="m380.21 794.09c0.87999 0.79794 4.3934 7.3638 7.3394 16.645 1.2651 3.9856 3.7824 18.123 3.7824 18.123" fill="none" stroke="url(#an)" stroke-linecap="round" stroke-width="1.2"/>
    </g>
  </g>
</svg>