<?xml version="1.0" encoding="utf-8"?>
<svg viewBox="0 0 122.88 93.7" xmlns="http://www.w3.org/2000/svg">
  <defs>
    <style>.a{fill:#2b3e44;}.b{fill:#ff6d00;}.c{fill:#fff;}</style>
  </defs>
  <title>fish-color</title>
  <path d="M 61.44 17.292 C 95.357 17.292 122.89 30.533 122.89 46.849 C 122.89 63.163 95.358 76.408 61.44 76.408 C 27.522 76.408 -0.01 63.163 -0.01 46.849 C -0.01 30.533 27.52 17.292 61.44 17.292" fill-rule="evenodd"/>
  <path d="M 61.44 17.366 C 95.056 17.366 122.336 30.408 122.336 46.48 C 122.336 62.55 95.057 75.593 61.44 75.593 C 27.823 75.593 0.548 62.549 0.548 46.48 C 0.548 30.41 27.828 17.366 61.44 17.366" fill="#d18836" fill-rule="evenodd"/>
  <path d="M 61.44 19.18 C 94.194 19.18 120.781 31.577 120.781 46.849 C 120.781 62.122 94.195 74.515 61.44 74.515 C 28.685 74.515 2.103 62.12 2.103 46.849 C 2.103 31.578 28.686 19.18 61.44 19.18" fill="#184180" fill-rule="evenodd"/>
  <path d="M 62.181 24.292 C 87.454 24.292 107.964 33.901 107.964 45.737 C 107.964 57.575 87.455 67.184 62.181 67.184 C 36.91 67.184 16.402 57.575 16.402 45.737 C 16.402 33.901 36.912 24.292 62.181 24.292" fill="#1c0a7f" fill-rule="evenodd"/>
  <path d="M 62.549 26.071 C 86.902 26.071 106.665 34.881 106.665 45.737 C 106.665 56.593 86.904 65.406 62.549 65.406 C 38.198 65.406 18.432 56.592 18.432 45.737 C 18.432 34.883 38.196 26.071 62.549 26.071" fill="#fff" fill-rule="evenodd"/>
  <path d="M 25.622 49.515 C 24.066 47.629 24.178 43.072 25.51 40.515 C 26.844 37.849 29.288 35.626 33.733 33.848 C 37.844 31.515 43.511 29.959 50.734 29.181 C 57.735 28.181 68.402 28.405 76.294 29.847 C 84.071 31.182 92.516 34.96 97.291 38.183 C 101.185 41.072 103.072 44.627 102.517 47.629 C 101.848 50.407 99.514 54.296 95.073 54.518 C 90.624 54.404 83.515 48.737 76.294 47.405 C 68.402 45.628 58.068 45.183 50.845 45.628 C 43.735 46.073 38.177 49.295 34.177 50.184 C 29.955 50.847 26.955 50.63 25.622 49.515 Z" fill="#e0dbdc" fill-rule="evenodd"/>
</svg>