<?xml version="1.0" encoding="utf-8"?>
<svg viewBox="0 0 122.9 93.7" xmlns="http://www.w3.org/2000/svg">
  <title>fish-color</title>
  <path class="a" d="M 119.987 7.787 C 118.897 8.877 117.827 10.007 116.757 11.117 L 120.397 9.577 C 120.484 9.533 120.574 9.496 120.667 9.467 C 120.771 9.434 120.879 9.414 120.987 9.407 L 120.987 9.407 C 121.41 9.357 121.836 9.479 122.167 9.747 C 122.503 10.014 122.722 10.401 122.777 10.827 C 123.05 13.91 122.783 17.016 121.987 20.007 C 121.043 23.804 119.702 27.49 117.987 31.007 C 116.12 34.878 113.947 38.593 111.487 42.117 C 109.045 45.654 106.334 48.997 103.377 52.117 C 103.091 53.877 102.737 55.59 102.317 57.257 C 101.897 58.924 101.404 60.59 100.837 62.257 C 100.256 63.956 99.588 65.625 98.837 67.257 C 98.101 68.858 97.283 70.42 96.387 71.937 L 96.387 71.937 C 96.358 71.987 96.325 72.033 96.287 72.077 C 96.253 72.128 96.213 72.175 96.167 72.217 L 96.167 72.217 C 95.326 73.138 94.356 73.933 93.287 74.577 C 92.468 75.074 91.535 75.353 90.577 75.387 C 89.642 75.388 88.732 75.082 87.987 74.517 C 87.186 73.924 86.523 73.163 86.047 72.287 C 86.013 72.24 85.983 72.19 85.957 72.137 C 85.93 72.086 85.906 72.032 85.887 71.977 L 85.887 71.977 C 85.497 70.977 85.137 69.977 84.787 68.877 C 84.437 67.777 84.117 66.767 83.787 65.717 C 83.557 64.897 83.337 64.057 83.137 63.207 C 82.937 62.357 82.807 61.777 82.667 61.077 C 78.398 62.272 73.999 62.944 69.567 63.077 C 65.756 63.155 61.943 63.015 58.147 62.657 L 58.147 62.657 C 54.074 62.238 49.974 62.154 45.887 62.407 C 45.064 62.466 44.256 62.662 43.497 62.987 C 42.785 63.294 42.134 63.727 41.577 64.267 C 40.938 64.881 40.402 65.593 39.987 66.377 C 39.495 67.313 39.113 68.303 38.847 69.327 C 37.177 74.267 35.677 79.407 34.107 84.397 C 33.615 86.019 32.982 87.595 32.217 89.107 C 31.654 90.257 30.908 91.307 30.007 92.217 C 29.533 92.685 28.982 93.067 28.377 93.347 C 27.824 93.593 27.223 93.716 26.617 93.707 C 26.005 93.693 25.404 93.543 24.857 93.267 L 24.857 93.267 C 24.265 92.965 23.731 92.563 23.277 92.077 C 22.38 91.087 21.648 89.959 21.107 88.737 C 20.364 87.124 19.759 85.452 19.297 83.737 C 18.997 82.657 18.717 81.617 18.467 80.617 C 18.217 79.617 17.957 78.617 17.717 77.507 C 17.477 76.397 17.297 75.587 17.117 74.657 C 16.937 73.727 16.787 72.907 16.647 72.017 C 15.007 70.827 13.397 69.627 11.847 68.417 C 10.297 67.207 8.747 65.907 7.327 64.597 C 5.888 63.291 4.551 61.877 3.327 60.367 C 2.202 58.964 1.251 57.43 0.497 55.797 L 0.437 55.657 C 0.43 55.607 0.43 55.557 0.437 55.507 C -0.169 53.95 -0.115 52.213 0.587 50.697 C 1.333 49.489 2.533 48.631 3.917 48.317 C 6.236 47.795 8.634 47.731 10.977 48.127 C 13.497 48.447 15.977 49.007 17.817 49.417 L 18.667 49.607 L 19.457 49.777 L 27.587 51.407 C 29.131 51.597 30.693 51.597 32.237 51.407 C 33.548 51.236 34.818 50.833 35.987 50.217 C 37.091 49.612 38.064 48.792 38.847 47.807 C 39.744 46.663 40.447 45.379 40.927 44.007 L 40.927 43.907 L 40.977 43.787 C 41.767 42.227 42.587 40.657 43.437 39.057 C 44.287 37.457 45.127 35.907 46.017 34.297 C 46.807 32.867 47.607 31.447 48.417 30.057 C 49.227 28.667 49.967 27.417 50.767 26.117 C 48.921 24.276 47.191 22.322 45.587 20.267 C 43.837 17.947 42.457 15.487 42.367 13.347 C 42.222 11.794 42.897 10.279 44.147 9.347 C 45.427 8.347 47.487 7.737 50.547 7.597 C 52.027 7.537 53.497 7.497 54.967 7.497 C 56.437 7.497 57.907 7.497 59.347 7.667 C 60.787 7.837 62.107 7.937 63.487 8.167 C 64.836 8.388 66.171 8.682 67.487 9.047 C 71.294 6.532 75.443 4.578 79.807 3.247 C 84.78 1.664 89.916 0.648 95.117 0.217 C 99.855 -0.232 104.633 -0.006 109.307 0.887 C 113.089 1.575 116.671 3.091 119.797 5.327 L 119.967 5.477 C 120.263 5.775 120.432 6.177 120.437 6.597 C 120.444 7.036 120.283 7.462 119.987 7.787 Z" style="fill: rgb(43, 62, 68);"/>
  <path class="b" d="M 79.347 6.887 C 77.402 7.56 75.502 8.355 73.657 9.267 C 71.946 10.101 70.31 11.082 68.767 12.197 C 68.562 12.345 68.326 12.444 68.077 12.487 C 67.827 12.525 67.571 12.508 67.327 12.437 L 67.327 12.437 C 65.986 12.045 64.624 11.728 63.247 11.487 C 61.877 11.247 60.507 11.087 59.137 10.977 C 57.767 10.867 56.327 10.817 54.937 10.817 C 53.547 10.817 52.127 10.817 50.707 10.907 L 50.707 10.907 C 49.291 10.881 47.887 11.171 46.597 11.757 C 45.985 12.022 45.591 12.629 45.597 13.297 C 45.737 16.437 50.787 21.597 53.597 24.447 L 53.967 24.827 C 54.229 25.099 54.391 25.451 54.427 25.827 C 54.46 26.198 54.365 26.568 54.157 26.877 C 53.257 28.327 52.367 29.827 51.467 31.367 C 50.567 32.907 49.697 34.437 48.857 35.947 C 48.017 37.457 47.197 38.947 46.367 40.547 C 45.537 42.147 44.737 43.657 43.917 45.267 C 43.31 46.98 42.425 48.581 41.297 50.007 C 40.259 51.288 38.978 52.352 37.527 53.137 C 36.046 53.932 34.434 54.454 32.767 54.677 C 30.899 54.923 29.006 54.923 27.137 54.677 C 24.407 54.247 21.507 53.567 18.777 53.017 L 18.037 52.857 L 17.037 52.637 C 15.327 52.257 13.037 51.737 10.747 51.427 C 8.762 51.059 6.725 51.079 4.747 51.487 C 4.191 51.619 3.718 51.983 3.447 52.487 C 3.179 53.172 3.179 53.932 3.447 54.617 C 4.142 55.982 4.994 57.261 5.987 58.427 C 7.091 59.776 8.291 61.042 9.577 62.217 C 10.957 63.497 12.487 64.757 14.097 66.017 C 15.707 67.277 17.407 68.517 19.147 69.777 C 19.321 69.903 19.467 70.063 19.577 70.247 C 19.685 70.417 19.756 70.608 19.787 70.807 L 19.787 70.867 C 19.937 71.867 20.107 72.867 20.297 73.867 C 20.487 74.867 20.697 75.867 20.917 76.867 C 21.137 77.867 21.387 78.867 21.647 79.867 C 21.907 80.867 22.187 81.937 22.457 82.867 C 22.852 84.355 23.363 85.81 23.987 87.217 C 24.393 88.182 24.953 89.074 25.647 89.857 C 25.829 90.052 26.038 90.22 26.267 90.357 C 26.412 90.447 26.577 90.499 26.747 90.507 C 26.912 90.503 27.074 90.458 27.217 90.377 C 27.444 90.253 27.653 90.098 27.837 89.917 C 28.521 89.202 29.085 88.382 29.507 87.487 C 30.144 86.2 30.673 84.862 31.087 83.487 L 35.787 68.487 C 36.123 67.193 36.613 65.944 37.247 64.767 C 37.801 63.747 38.506 62.816 39.337 62.007 C 40.157 61.176 41.119 60.499 42.177 60.007 C 43.269 59.534 44.431 59.246 45.617 59.157 C 49.871 58.891 54.138 58.978 58.377 59.417 L 58.377 59.417 C 62.199 59.784 66.04 59.914 69.877 59.807 C 74.483 59.608 79.042 58.805 83.437 57.417 C 83.846 57.29 84.288 57.329 84.667 57.527 C 85.123 57.76 85.436 58.2 85.507 58.707 C 85.687 59.707 85.887 60.707 86.117 61.707 C 86.347 62.707 86.607 63.707 86.887 64.707 C 87.167 65.707 87.477 66.707 87.797 67.707 C 88.117 68.707 88.467 69.647 88.797 70.627 C 89.016 71.007 89.301 71.346 89.637 71.627 C 89.859 71.823 90.142 71.936 90.437 71.947 C 90.916 71.909 91.375 71.744 91.767 71.467 C 92.453 71.056 93.087 70.566 93.657 70.007 C 94.474 68.616 95.218 67.184 95.887 65.717 C 96.575 64.219 97.185 62.687 97.717 61.127 C 98.277 59.52 98.761 57.874 99.167 56.187 C 99.574 54.5 99.907 52.777 100.167 51.017 C 100.196 50.854 100.246 50.696 100.317 50.547 C 100.383 50.41 100.471 50.285 100.577 50.177 L 100.577 50.177 C 102.067 48.637 103.497 47.017 104.857 45.347 C 106.217 43.677 107.377 42.137 108.537 40.477 C 104.704 39.427 101.026 37.877 97.597 35.867 C 94.303 33.921 91.336 31.468 88.807 28.597 C 86.25 25.655 84.168 22.332 82.637 18.747 C 81.056 14.945 79.951 10.961 79.347 6.887 Z" style="fill: rgb(255, 0, 208);"/>
  <path class="b" d="M 108.877 14.567 L 116.297 6.917 C 113.591 5.394 110.629 4.377 107.557 3.917 C 103.524 3.272 99.425 3.138 95.357 3.517 C 93.123 3.7 90.899 4.004 88.697 4.427 C 86.567 4.827 84.467 5.337 82.437 5.927 C 83.012 9.814 84.07 13.613 85.587 17.237 C 86.996 20.587 88.927 23.692 91.307 26.437 C 93.7 29.162 96.528 31.47 99.677 33.267 C 103.073 35.2 106.717 36.66 110.507 37.607 C 111.334 36.274 112.117 34.97 112.857 33.697 C 113.637 32.297 114.367 30.917 115.017 29.547 C 116.438 26.632 117.6 23.596 118.487 20.477 C 119.155 18.173 119.531 15.795 119.607 13.397 L 110.607 17.197 C 110.213 17.357 109.772 17.357 109.377 17.197 C 108.983 17.031 108.668 16.72 108.497 16.327 C 108.371 16.038 108.336 15.717 108.397 15.407 C 108.456 15.109 108.595 14.833 108.797 14.607 L 108.797 14.607 Z" style="fill: rgb(255, 0, 208);"/>
  <path d="M 100.457 6.277 L 100.387 6.277 C 99.696 6.095 98.976 6.051 98.267 6.147 C 97.563 6.247 96.884 6.481 96.267 6.837 C 95.643 7.201 95.094 7.679 94.647 8.247 C 94.192 8.812 93.852 9.461 93.647 10.157 L 93.647 10.217 C 93.466 10.912 93.421 11.635 93.517 12.347 C 93.622 13.05 93.856 13.729 94.207 14.347 C 94.568 14.991 95.054 15.555 95.637 16.007 C 96.796 16.895 98.26 17.287 99.707 17.097 C 100.412 16.997 101.091 16.763 101.707 16.407 L 101.707 16.407 C 102.317 16.052 102.851 15.58 103.277 15.017 C 103.717 14.446 104.04 13.793 104.227 13.097 L 104.227 13.037 C 104.409 12.346 104.453 11.625 104.357 10.917 C 104.254 10.213 104.02 9.535 103.667 8.917 C 103.306 8.294 102.827 7.747 102.257 7.307 C 101.692 6.873 101.046 6.553 100.357 6.367 Z"/>
  <path class="c" d="M 100.597 5.537 L 100.667 5.537 C 101.447 5.75 102.177 6.114 102.817 6.607 C 104.122 7.614 104.977 9.094 105.197 10.727 C 105.31 11.532 105.262 12.351 105.057 13.137 L 105.057 13.207 C 104.851 14.004 104.487 14.752 103.987 15.407 C 103.486 16.053 102.865 16.596 102.157 17.007 L 102.157 17.007 C 99.969 18.255 97.246 18.07 95.247 16.537 C 94.593 16.037 94.046 15.412 93.637 14.697 C 93.233 13.991 92.968 13.213 92.857 12.407 C 92.743 11.606 92.787 10.791 92.987 10.007 L 92.987 9.917 C 93.422 8.334 94.464 6.986 95.887 6.167 C 96.594 5.763 97.371 5.498 98.177 5.387 C 98.982 5.275 99.801 5.322 100.587 5.527 Z" style="fill: rgb(255, 255, 255);"/>
  <path class="a" d="M 99.987 7.937 L 99.987 7.937 C 100.466 8.065 100.914 8.286 101.307 8.587 C 101.716 8.882 102.057 9.26 102.307 9.697 C 102.797 10.547 102.937 11.555 102.697 12.507 L 102.697 12.577 C 102.57 13.048 102.353 13.489 102.057 13.877 C 101.766 14.26 101.402 14.583 100.987 14.827 L 100.987 14.827 C 100.559 15.073 100.087 15.233 99.597 15.297 C 99.105 15.358 98.606 15.324 98.127 15.197 C 97.649 15.069 97.201 14.848 96.807 14.547 C 96.41 14.252 96.071 13.886 95.807 13.467 L 95.807 13.467 C 95.317 12.613 95.177 11.602 95.417 10.647 L 95.417 10.577 C 95.676 9.621 96.301 8.805 97.157 8.307 C 98.015 7.817 99.03 7.681 99.987 7.927 Z" style="fill: rgb(43, 62, 68);"/>
  <g transform="matrix(0.431571, 0, 0, 0.431571, 46.14793, 4.459985)">
    <path class="st0" d="M33.76,62.78h-0.98c0-8.04-3.01-15.06-9.01-21.07c-6-6-13.03-9.01-21.07-9.01v-0.98 c8.04,0,15.07-3.01,21.07-9.02c6-6.03,9.01-13.06,9.01-21.07h0.98c0,8.04,3.01,15.07,9.01,21.07c6,6,13.03,9.01,21.07,9.01v0.98 c-8.04,0-15.07,3.01-21.07,9.01C36.77,47.72,33.76,54.74,33.76,62.78L33.76,62.78L33.76,62.78z M15.89,99.59h-0.45 c0-3.68-1.38-6.91-4.14-9.66c-2.75-2.75-5.98-4.14-9.66-4.14v-0.45c3.68,0,6.91-1.38,9.66-4.14c2.75-2.76,4.14-5.98,4.14-9.65h0.45 c0,3.68,1.38,6.91,4.14,9.66c2.75,2.75,5.97,4.14,9.66,4.14v0.45c-3.68,0-6.91,1.38-9.66,4.14C17.26,92.68,15.89,95.91,15.89,99.59 L15.89,99.59L15.89,99.59z M62.44,121.24h-0.45c0-3.68-1.38-6.91-4.14-9.66c-2.75-2.75-5.97-4.14-9.66-4.14v-0.45 c3.68,0,6.91-1.38,9.66-4.14c2.75-2.76,4.14-5.98,4.14-9.65h0.45c0,3.68,1.38,6.91,4.14,9.66c2.75,2.75,5.97,4.14,9.66,4.14v0.45 c-3.68,0-6.91,1.38-9.66,4.14C63.82,114.33,62.44,117.55,62.44,121.24L62.44,121.24L62.44,121.24z M93.6,87.19h-0.82 c0-6.74-2.52-12.64-7.56-17.68c-5.04-5.04-10.93-7.56-17.68-7.56v-0.82c6.74,0,12.64-2.52,17.68-7.57 c5.04-5.05,7.56-10.95,7.56-17.67h0.82c0,6.74,2.52,12.64,7.56,17.68c5.04,5.04,10.93,7.56,17.68,7.56v0.82 c-6.74,0-12.64,2.52-17.68,7.56C96.13,74.55,93.6,80.45,93.6,87.19L93.6,87.19L93.6,87.19z" style="clip-rule: evenodd; fill: rgb(255, 235, 50); fill-rule: evenodd;"/>
    <path class="st1" d="M33.76,64.42h-0.98c-0.9,0-1.64-0.73-1.64-1.64c0-3.8-0.71-7.36-2.12-10.66c-1.42-3.31-3.55-6.4-6.41-9.25 l-0.08-0.09c-2.83-2.81-5.89-4.92-9.17-6.33c-3.3-1.41-6.86-2.12-10.66-2.12c-0.9,0-1.64-0.73-1.64-1.64v-0.98 c0-0.9,0.73-1.64,1.64-1.64c3.8,0,7.36-0.71,10.66-2.12c3.32-1.42,6.4-3.56,9.25-6.41c2.85-2.87,4.99-5.96,6.41-9.28 c1.41-3.3,2.12-6.85,2.12-10.63c0-0.9,0.73-1.64,1.64-1.64h0.98c0.9,0,1.64,0.73,1.64,1.64c0,3.8,0.71,7.36,2.12,10.66 c1.42,3.31,3.55,6.4,6.41,9.25c2.86,2.86,5.94,5,9.25,6.41c3.3,1.41,6.85,2.12,10.66,2.12c0.9,0,1.64,0.73,1.64,1.64v0.98 c0,0.9-0.73,1.64-1.64,1.64c-3.8,0-7.36,0.71-10.66,2.12c-3.31,1.42-6.4,3.55-9.25,6.41l-0.08,0.08c-2.81,2.84-4.92,5.9-6.33,9.19 c-1.41,3.3-2.12,6.86-2.12,10.66C35.4,63.69,34.66,64.42,33.76,64.42L33.76,64.42z M32.03,50.85c0.49,1.14,0.9,2.31,1.24,3.5 c0.34-1.19,0.75-2.36,1.24-3.51c1.57-3.67,3.91-7.08,7.02-10.21l0.09-0.09c3.15-3.15,6.58-5.51,10.29-7.1 c1.14-0.49,2.31-0.9,3.5-1.24c-1.19-0.34-2.36-0.75-3.5-1.24c-3.71-1.59-7.14-3.96-10.29-7.1s-5.51-6.58-7.1-10.29 c-0.49-1.15-0.91-2.32-1.25-3.52c-0.34,1.19-0.75,2.35-1.24,3.49c-1.58,3.7-3.95,7.14-7.1,10.31c-3.15,3.16-6.58,5.53-10.29,7.12 c-1.15,0.49-2.32,0.91-3.51,1.24c1.19,0.34,2.36,0.75,3.51,1.24c3.67,1.57,7.07,3.91,10.2,7.02l0.09,0.09 C28.07,43.7,30.44,47.14,32.03,50.85L32.03,50.85z M15.89,101.23h-0.45c-0.9,0-1.64-0.73-1.64-1.64c0-1.62-0.3-3.14-0.9-4.54 c-0.6-1.41-1.52-2.74-2.76-3.97c-1.23-1.23-2.56-2.15-3.97-2.76c-1.4-0.6-2.92-0.9-4.54-0.9C0.73,87.43,0,86.7,0,85.79v-0.45 c0-0.9,0.73-1.64,1.64-1.64c1.62,0,3.14-0.3,4.54-0.9c1.41-0.6,2.73-1.52,3.97-2.76l0.08-0.08c1.19-1.21,2.08-2.51,2.68-3.9 c0.6-1.4,0.9-2.91,0.9-4.53c0-0.9,0.73-1.64,1.64-1.64h0.45c0.9,0,1.64,0.73,1.64,1.64c0,1.62,0.3,3.14,0.9,4.54 c0.6,1.41,1.52,2.73,2.75,3.97s2.55,2.15,3.96,2.76c1.4,0.6,2.92,0.9,4.54,0.9c0.9,0,1.64,0.73,1.64,1.64v0.45 c0,0.9-0.73,1.64-1.64,1.64c-1.62,0-3.14,0.3-4.54,0.9c-1.41,0.6-2.73,1.52-3.97,2.76l-0.09,0.08c-1.19,1.2-2.08,2.49-2.67,3.87 c-0.6,1.4-0.9,2.92-0.9,4.55C17.53,100.49,16.79,101.23,15.89,101.23L15.89,101.23z M12.46,88.77c1.37,1.37,2.44,2.86,3.2,4.47 c0.75-1.57,1.79-3.02,3.13-4.37l0.08-0.09c1.37-1.37,2.86-2.44,4.47-3.2c-1.61-0.77-3.1-1.84-4.47-3.21 c-1.37-1.37-2.44-2.87-3.21-4.48c-0.75,1.56-1.79,3.02-3.11,4.37l-0.09,0.1c-1.37,1.37-2.86,2.44-4.47,3.21 C9.59,86.33,11.09,87.4,12.46,88.77L12.46,88.77z M62.44,122.88h-0.45c-0.9,0-1.64-0.73-1.64-1.64c0-1.62-0.3-3.14-0.9-4.54 c-0.6-1.41-1.52-2.73-2.76-3.97l-0.08-0.08c-1.21-1.19-2.5-2.08-3.89-2.67c-1.4-0.6-2.92-0.9-4.54-0.9c-0.9,0-1.64-0.73-1.64-1.64 v-0.45c0-0.9,0.73-1.64,1.64-1.64c1.62,0,3.14-0.3,4.54-0.9c1.41-0.6,2.74-1.52,3.97-2.76l0.08-0.08c1.19-1.21,2.08-2.51,2.68-3.9 c0.6-1.4,0.9-2.91,0.9-4.53c0-0.9,0.73-1.64,1.64-1.64h0.45c0.9,0,1.64,0.73,1.64,1.64c0,1.62,0.3,3.14,0.9,4.54 c0.6,1.41,1.52,2.73,2.75,3.97c1.23,1.23,2.55,2.15,3.96,2.76c1.4,0.6,2.92,0.9,4.54,0.9c0.9,0,1.64,0.73,1.64,1.64v0.45 c0,0.9-0.73,1.64-1.64,1.64c-1.62,0-3.14,0.3-4.54,0.9c-1.41,0.6-2.73,1.52-3.97,2.76l-0.09,0.08c-1.19,1.2-2.08,2.49-2.67,3.87 c-0.6,1.4-0.9,2.91-0.9,4.54C64.08,122.15,63.35,122.88,62.44,122.88L62.44,122.88z M59.01,110.42c1.37,1.37,2.44,2.86,3.2,4.47 c0.75-1.57,1.79-3.02,3.13-4.37l0.08-0.09c1.37-1.37,2.86-2.44,4.47-3.2c-1.61-0.77-3.1-1.84-4.47-3.21 c-1.37-1.37-2.44-2.87-3.21-4.48c-0.75,1.56-1.79,3.02-3.11,4.37l-0.09,0.1c-1.37,1.37-2.86,2.44-4.47,3.2 c1.57,0.75,3.03,1.79,4.37,3.12L59.01,110.42L59.01,110.42z M93.6,88.82h-0.82c-0.9,0-1.64-0.73-1.64-1.64 c0-3.15-0.59-6.1-1.76-8.84c-1.17-2.75-2.95-5.31-5.33-7.69c-2.38-2.38-4.94-4.15-7.68-5.33c-2.73-1.17-5.68-1.76-8.84-1.76 c-0.9,0-1.64-0.73-1.64-1.64v-0.82c0-0.9,0.73-1.64,1.64-1.64c3.16,0,6.1-0.59,8.84-1.76c2.75-1.18,5.31-2.96,7.68-5.33 c2.37-2.38,4.15-4.95,5.33-7.7c1.17-2.74,1.76-5.68,1.76-8.82c0-0.9,0.73-1.64,1.64-1.64h0.82c0.9,0,1.64,0.73,1.64,1.64 c0,3.15,0.59,6.1,1.76,8.84c1.18,2.75,2.95,5.32,5.32,7.69c2.37,2.37,4.93,4.15,7.69,5.32c2.74,1.17,5.68,1.76,8.84,1.76 c0.9,0,1.64,0.73,1.64,1.64v0.82c0,0.9-0.73,1.64-1.64,1.64c-3.15,0-6.1,0.59-8.84,1.76c-2.75,1.18-5.32,2.95-7.69,5.32 c-2.37,2.38-4.15,4.94-5.32,7.69c-1.17,2.74-1.76,5.68-1.76,8.84C95.24,88.09,94.51,88.82,93.6,88.82L93.6,88.82z M92.39,77.07 c0.3,0.7,0.57,1.42,0.8,2.14c0.23-0.72,0.5-1.44,0.8-2.14c1.35-3.15,3.35-6.06,6.02-8.72c2.68-2.67,5.58-4.67,8.72-6.02 c0.7-0.3,1.41-0.57,2.14-0.8c-0.72-0.23-1.44-0.5-2.14-0.8c-3.14-1.34-6.04-3.35-8.71-6.02l-0.01-0.01 c-2.67-2.67-4.67-5.57-6.02-8.71c-0.3-0.7-0.57-1.42-0.8-2.15c-0.23,0.72-0.5,1.43-0.8,2.13c-1.34,3.14-3.35,6.05-6.02,8.72 c-2.67,2.68-5.58,4.69-8.72,6.03c-0.7,0.3-1.42,0.57-2.14,0.8c0.72,0.23,1.44,0.5,2.14,0.8c3.15,1.35,6.05,3.35,8.72,6.02 C89.04,71.01,91.05,73.92,92.39,77.07L92.39,77.07z" style="fill: rgb(217, 200, 41);"/>
  </g>
</svg>